<svg width="114" height="46" viewBox="0 0 114 46" fill="none" xmlns="http://www.w3.org/2000/svg">
<path d="M110.853 41.7775C115.276 42.6755 111.657 5.95536 110.953 3.56057C108.943 -3.02512 84.1108 1.46512 78.5814 1.86425C65.8136 2.86208 53.2469 0.866423 40.7807 1.46512C34.5476 1.76447 5.69443 -0.330974 3.08055 3.46078C-1.94614 10.6452 0.366137 29.2048 1.77361 38.4846C-2.24774 39.2829 4.08589 42.6755 4.89016 43.374C11.2238 45.5692 21.3777 43.1745 28.0129 43.7732C43.4951 45.2699 59.9827 41.5779 75.5654 42.7753C80.0894 43.8729 85.2167 43.7731 89.8412 43.9727C93.3599 49.5606 109.646 41.5779 110.853 41.7775C111.355 41.8773 110.752 41.7775 110.853 41.7775Z" fill="black"/>
</svg>
