<svg width="104" height="35" viewBox="0 0 104 35" fill="none" xmlns="http://www.w3.org/2000/svg">
<path d="M20.0996 21.6922C19.9989 19.0269 19.5963 16.3617 19.5963 13.6964C19.5963 11.5247 19.9989 9.25433 19.1936 7.18135C19.1936 6.98393 19.2943 6.68779 19.2943 6.49036C19.4956 5.40452 15.9724 5.9968 15.469 6.98393C15.167 7.28007 14.9657 7.57621 15.0664 7.97106C15.0664 8.06977 15.167 8.16849 15.167 8.2672C14.4624 11.426 13.5564 14.5848 12.5498 17.645C12.1471 18.8295 11.6438 20.0141 11.2411 21.1986C10.6372 20.1128 10.0332 19.0269 9.52986 17.8424C8.12056 14.3874 6.91259 10.9325 5.2013 7.67492C5.40263 6.19422 1.98006 6.29293 1.27541 7.67492C0.470094 9.35304 0.570759 11.0312 0.872751 12.9067C1.17474 14.9797 1.27541 16.954 1.27541 19.0269C1.27541 22.9755 1.67806 26.924 1.67806 30.8725C1.27541 31.2674 1.17474 31.7609 1.5774 32.2545C1.77873 32.4519 1.98005 32.6494 2.18138 32.8468C3.08736 33.5378 5.70463 32.9455 5.70463 31.5635C5.70463 27.4176 5.40263 23.3703 5.30197 19.2244C5.30197 18.8295 5.30197 18.4347 5.30197 18.0398C5.40263 18.1385 5.40263 18.3359 5.5033 18.4347C6.10728 20.0141 6.81193 21.5935 7.71791 23.0742C8.62388 24.5549 9.02654 26.1343 9.52986 27.7137C9.32853 27.9111 9.22787 28.2073 9.32853 28.4047C9.32853 28.6021 9.4292 28.7008 9.63053 28.7995C10.2345 29.3918 11.5431 29.0957 12.1471 28.7995C12.4491 28.7008 12.7511 28.5034 12.9524 28.4047C13.2544 28.2073 13.8584 27.7137 13.6571 27.2201C13.6571 27.1214 13.5564 27.0227 13.5564 26.924C14.0597 25.6407 14.2611 24.3575 14.5631 22.9755C14.8651 21.5935 15.3684 20.2115 15.8717 18.8295C15.9724 19.4218 15.9724 20.1128 16.073 20.7051C16.2744 23.2716 16.073 25.7394 16.073 28.306C16.073 29.1944 16.1737 29.8854 16.2744 30.7738C16.375 31.07 16.677 32.5507 16.5763 32.6494C15.9724 33.2416 16.1737 33.9326 16.979 34.0313C17.885 34.2288 19.0929 33.9326 19.7976 33.3404C21.0056 32.2545 20.4016 30.4777 20.2003 29.0957C19.5963 26.7266 20.0996 24.0613 20.0996 21.6922Z" fill="white"/>
<path d="M28.5556 22.384C28.4549 20.4097 27.7503 18.5342 27.7503 16.5599C27.7503 14.2895 27.9516 12.0191 27.5489 9.74869C27.4483 9.0577 23.4217 9.84741 23.5224 10.8345C23.8244 12.9075 23.7237 15.0792 23.7237 17.1522C23.7237 19.2252 24.227 21.002 24.4283 23.075C24.7303 25.148 24.3277 27.2209 24.529 29.2939C24.6297 30.281 25.3343 32.0579 24.6297 32.8476C24.227 33.3412 26.1396 33.1437 26.2403 33.1437C27.0456 33.045 28.0522 32.7489 28.5556 32.1566C29.2602 31.3669 28.7569 29.7875 28.6562 28.8003C28.4549 26.5299 28.6562 24.457 28.5556 22.384Z" fill="white"/>
<path d="M45.1649 19.0275C43.051 16.2636 39.2258 18.2378 36.5078 17.4481C35.0985 17.0533 35.0985 15.1777 35.0985 14.0919C35.0985 12.7099 34.9979 11.3279 34.7965 9.94592C34.6959 8.86007 34.7965 7.87294 35.6019 7.08323C35.7025 6.98452 36.5078 6.7871 36.4072 6.7871C36.8098 6.68838 37.1118 6.68838 37.5145 6.68838C39.1251 6.58967 42.2457 6.88581 41.6417 9.15621C41.3397 10.1433 45.2656 9.55107 45.5676 8.56393C46.7756 4.02313 38.1185 4.91155 35.7025 5.50382C33.4879 6.0961 30.9713 7.37938 30.8706 9.84721C30.77 11.0318 31.1726 12.2163 31.1726 13.4009C31.2733 14.7829 30.9713 16.1649 31.4746 17.5468C32.5819 20.5082 37.1118 19.1262 39.3264 19.3237C43.2523 19.6198 42.0444 24.7529 42.145 27.2207C42.145 28.504 43.353 30.6757 42.3464 31.6628C41.7424 32.3538 40.3331 32.3538 39.5278 32.4525C38.7224 32.5512 37.3131 32.7487 36.7092 31.959C35.7025 30.577 36.8098 28.2079 36.6085 26.5297C36.4072 25.5426 32.3806 26.431 32.5819 27.5169C32.8839 30.1821 31.1726 33.6371 34.9979 34.1307C37.5145 34.4268 40.2324 33.9332 42.6483 33.2422C43.8563 32.8474 44.9636 32.2551 45.9703 31.4654C46.9769 30.577 46.6749 29.0963 46.3729 27.9117C45.6683 24.9503 47.0776 21.5941 45.1649 19.0275Z" fill="white"/>
<path d="M62.7812 18.83C62.6805 15.0789 62.0765 11.3278 62.0765 7.57671C62.0765 5.60245 58.05 6.29344 58.05 7.87285C58.05 11.4265 58.5533 14.9802 58.7546 18.6326C58.7546 18.7313 58.7546 18.7313 58.7546 18.83C56.7413 18.83 54.8287 19.0274 52.8154 19.0274C53.0168 14.3879 52.2114 9.84712 52.4128 5.2076C52.4128 4.61532 48.4869 5.10888 48.3862 6.29344C48.1849 10.7355 48.9902 15.1776 48.8895 19.6197C48.7889 21.7914 48.6882 23.8644 48.5875 26.0361C48.5875 27.1219 48.7889 28.2078 48.8895 29.2936C48.9902 30.2808 49.3928 31.6627 49.0909 32.5512C48.8895 33.3409 52.7148 32.8473 53.0168 31.8602C53.5201 30.0833 52.8154 27.8129 52.6141 26.0361C52.4128 24.358 52.6141 22.5811 52.7148 20.8043C54.728 20.7056 56.842 20.5081 58.8553 20.8043C58.9559 22.1863 59.0566 23.5683 59.1573 24.9502C59.2579 26.1348 59.3586 27.2206 59.3586 28.4052C59.3586 29.3923 59.4593 30.873 59.1573 31.8602C58.352 33.9331 62.3785 33.7357 62.9825 32.255C63.6871 30.3795 63.4858 28.1091 63.3852 26.1348C63.1838 23.7657 62.7812 21.2979 62.7812 18.83Z" fill="white"/>
<path d="M79.894 23.3711C78.9881 20.6071 77.4781 18.238 76.2701 15.5728C77.2768 13.5985 78.2834 11.7229 79.29 9.74867C80.0954 7.97183 80.8 5.89886 82.4106 4.7143C83.0146 4.22073 83.0146 3.82588 82.1086 3.72717C81.2027 3.62845 79.9947 3.92459 79.29 4.41816C77.7801 5.60272 76.8741 6.9847 76.0688 8.66283C75.0622 10.7358 74.1562 12.7101 73.0489 14.6843C72.9482 14.783 72.8475 14.9805 72.8475 15.0792C72.3442 15.3753 72.0422 15.8689 72.2436 16.3625C71.4382 17.9419 70.6329 19.4226 69.727 21.002C69.425 15.474 68.7203 9.9461 68.519 4.41816C68.519 3.13489 64.4924 3.92459 64.4924 5.504C64.6938 12.3152 65.7004 19.1264 65.8011 26.0364C65.8011 26.0364 65.8011 26.0364 65.8011 26.1351C65.4991 26.4312 65.5997 26.6286 65.9017 26.7273C65.9017 28.5042 65.8011 30.1823 65.7004 31.9591C65.1971 32.7489 66.2037 33.045 66.8077 33.045H66.9084C67.613 33.045 69.5256 32.6501 69.6263 31.663C69.8276 29.59 69.9283 27.5171 69.8276 25.4441C71.4382 23.7659 72.7469 21.7917 73.9549 19.8174C74.7602 21.2981 75.4648 22.7788 75.9681 24.3582C76.8741 27.1222 78.2834 29.59 79.1894 32.354C79.6927 34.1308 83.7193 33.045 83.2159 31.2682C82.31 28.6029 80.9007 26.0364 79.894 23.3711Z" fill="white"/>
<path d="M103.852 18.7316C103.651 17.9419 102.443 17.8431 101.537 17.9419C101.537 17.6457 101.537 17.2509 101.537 16.9547C101.437 14.2895 101.336 11.6242 101.135 8.95895C100.933 6.49112 99.5239 5.6027 97.108 5.70142C94.692 5.80013 91.7728 6.19498 89.4575 7.0834C86.8402 8.07053 85.3303 10.0448 84.8269 12.7101C84.2229 15.6715 85.0283 18.929 85.2296 21.8904C85.4309 25.3453 85.3303 28.899 85.3303 32.354C85.3303 32.9463 89.3568 32.354 89.3568 31.2681C89.3568 28.5042 89.3568 25.7402 89.3568 22.9762C89.3568 22.1865 89.2562 21.3968 89.2562 20.5084C90.6655 19.9161 92.9807 20.5084 94.39 20.6071C95.4973 20.7058 96.6046 20.4097 97.7119 20.311C97.7119 22.5814 97.8126 24.9505 97.9133 27.2209C97.9133 28.4055 98.4166 30.7746 97.5106 31.7617C97.1079 32.2553 99.0206 32.0578 99.1212 32.0578C99.9265 31.9591 100.933 31.663 101.437 30.972C102.443 29.8862 101.94 27.2209 101.839 25.8389C101.738 23.9634 101.738 21.9891 101.738 20.1135C102.745 20.311 104.054 19.5213 103.852 18.7316ZM88.9542 18.5341C88.8535 17.2509 88.7528 16.0663 88.6522 14.783C88.4508 12.4139 88.7528 9.25509 90.9674 7.77439C91.5714 7.37954 92.6787 7.47825 93.3834 7.37954C94.39 7.18211 95.3967 6.98469 96.3026 7.57697C97.5106 8.36667 97.2086 11.2294 97.2086 12.4139C97.2086 14.3882 97.4099 16.3624 97.5106 18.4354C96.9066 18.5341 96.4033 18.5341 95.7993 18.5341C93.484 18.4354 91.1688 18.1393 88.9542 18.5341Z" fill="white"/>
<path d="M25.1328 6.98433C25.6361 6.88562 26.2401 6.78691 26.6427 6.49077C26.7434 6.39206 26.8441 6.39206 26.9447 6.29334C27.4481 5.9972 27.9514 5.50364 27.6494 4.91136C27.1461 3.82551 27.2467 2.64095 27.2467 1.55511C27.2467 0.567976 26.2401 0.271835 25.4348 0.370549C24.7301 0.469262 23.2202 0.962828 23.2202 1.85125C23.2202 2.83838 23.1195 3.82551 23.3208 4.81264C23.3208 4.91136 23.2202 5.01007 23.2202 5.2075C23.1195 5.40492 23.2202 5.60235 23.3208 5.79978V5.89849C23.3208 5.9972 23.3208 6.09591 23.3208 6.19463C23.4215 6.39205 23.5222 6.58948 23.7235 6.68819C24.1261 6.98433 24.6295 6.98433 25.1328 6.98433Z" fill="white"/>
</svg>
