<svg width="53" height="23" viewBox="0 0 53 23" fill="none" xmlns="http://www.w3.org/2000/svg">
<path d="M0 14V23C8.08667 23 12.3713 18.5451 15.8992 14.8772L16.0696 14.7L16.1914 14.5705C19.2319 11.3374 21.4299 9 26.2957 9C31.094 9 33.3789 11.3598 36.5325 14.6169L36.613 14.7L36.6409 14.7294C40.1055 18.4243 44.3958 23 52.5913 23C52.7285 23 52.8647 22.9987 53 22.9962V13.9915C52.8364 13.9971 52.6699 14 52.5 14C47.6609 14 45.3782 11.6 42.2739 8.3L42.2461 8.27055C38.7815 4.57565 34.4912 0 26.2957 0C18.0088 0 13.718 4.57591 10.2532 8.27087L10.2261 8.3L10.1042 8.4295C7.06372 11.6626 4.86572 14 0 14Z" fill="#F1F1F1"/>
</svg>
