<svg width="104" height="35" fill="none" xmlns="http://www.w3.org/2000/svg"><path d="M20.1 21.692c-.101-2.665-.504-5.33-.504-7.996 0-2.171.403-4.442-.402-6.515 0-.197.1-.493.1-.69.202-1.086-3.322-.494-3.825.493-.302.296-.503.592-.403.987 0 .099.101.197.101.296-.705 3.159-1.61 6.318-2.617 9.378-.403 1.184-.906 2.37-1.309 3.554-.604-1.086-1.208-2.172-1.711-3.357-1.41-3.455-2.617-6.91-4.329-10.167.202-1.48-3.22-1.382-3.926 0C.47 9.353.571 11.03.873 12.907c.302 2.073.402 4.047.402 6.12 0 3.948.403 7.897.403 11.845-.403.395-.503.889-.1 1.383l.603.592c.906.69 3.524.099 3.524-1.284 0-4.145-.302-8.193-.403-12.339V18.04c.1.099.1.296.201.395.604 1.58 1.309 3.159 2.215 4.64.906 1.48 1.309 3.06 1.812 4.639-.201.197-.302.493-.201.69 0 .198.1.297.302.395.604.593 1.912.297 2.516 0 .302-.098.604-.296.805-.394.302-.198.906-.691.705-1.185 0-.099-.1-.197-.1-.296.503-1.283.704-2.566 1.006-3.948.302-1.383.805-2.764 1.309-4.146.1.592.1 1.283.201 1.875.201 2.567 0 5.034 0 7.601 0 .888.1 1.58.201 2.468.101.296.403 1.777.302 1.875-.604.593-.402 1.284.403 1.382.906.198 2.114-.098 2.819-.69 1.208-1.087.604-2.863.402-4.245-.604-2.37-.1-5.035-.1-7.404ZM28.556 22.384c-.101-1.974-.806-3.85-.806-5.824 0-2.27.202-4.54-.201-6.811-.1-.691-4.127.098-4.027 1.085.302 2.074.202 4.245.202 6.318 0 2.073.503 3.85.704 5.923.302 2.073-.1 4.146.101 6.219.1.987.805 2.764.1 3.554-.402.493 1.51.296 1.611.296.806-.099 1.812-.395 2.316-.987.704-.79.2-2.37.1-3.357-.201-2.27 0-4.343-.1-6.416ZM45.165 19.027c-2.114-2.763-5.94-.79-8.657-1.579-1.41-.395-1.41-2.27-1.41-3.356 0-1.382-.1-2.764-.301-4.146-.101-1.086 0-2.073.805-2.863.1-.098.906-.296.805-.296.403-.099.705-.099 1.108-.099 1.61-.098 4.73.198 4.127 2.468-.302.987 3.624.395 3.926-.592 1.208-4.54-7.45-3.652-9.865-3.06-2.215.592-4.732 1.875-4.832 4.343-.101 1.185.302 2.37.302 3.554.1 1.382-.202 2.764.302 4.146 1.107 2.961 5.637 1.58 7.851 1.777 3.926.296 2.718 5.429 2.819 7.897 0 1.283 1.208 3.455.201 4.442-.604.69-2.013.69-2.818.79-.806.098-2.215.296-2.819-.494-1.007-1.382.1-3.751-.1-5.43-.202-.986-4.228-.098-4.027.988.302 2.665-1.41 6.12 2.416 6.614 2.517.296 5.234-.198 7.65-.889a10.758 10.758 0 0 0 3.322-1.777c1.007-.888.705-2.369.403-3.553-.705-2.962.705-6.318-1.208-8.884ZM62.781 18.83c-.1-3.751-.704-7.502-.704-11.253 0-1.975-4.027-1.284-4.027.296 0 3.554.503 7.107.705 10.76v.197c-2.014 0-3.926.197-5.94.197.202-4.64-.604-9.18-.402-13.82 0-.592-3.926-.098-4.027 1.086-.201 4.442.604 8.885.503 13.327-.1 2.171-.2 4.244-.302 6.416 0 1.086.202 2.172.302 3.258.101.987.504 2.369.202 3.257-.202.79 3.624.296 3.926-.69.503-1.778-.202-4.048-.403-5.825-.201-1.678 0-3.455.1-5.232 2.014-.098 4.128-.296 6.141 0l.302 4.146c.1 1.185.202 2.27.202 3.455 0 .987.1 2.468-.202 3.455-.805 2.073 3.222 1.876 3.826.395.704-1.876.503-4.146.402-6.12-.201-2.37-.604-4.837-.604-7.305ZM79.894 23.371c-.906-2.764-2.416-5.133-3.624-7.798 1.007-1.975 2.013-3.85 3.02-5.824.805-1.777 1.51-3.85 3.12-5.035.605-.493.605-.888-.301-.987-.906-.099-2.114.198-2.819.691-1.51 1.185-2.416 2.567-3.221 4.245-1.007 2.073-1.913 4.047-3.02 6.021-.1.099-.202.296-.202.395-.503.296-.805.79-.603 1.284-.806 1.579-1.611 3.06-2.517 4.639-.302-5.528-1.007-11.056-1.208-16.584 0-1.283-4.027-.493-4.027 1.086.202 6.811 1.208 13.622 1.31 20.532v.1c-.303.295-.202.493.1.591 0 1.777-.1 3.455-.202 5.232-.503.79.504 1.086 1.108 1.086h.1c.705 0 2.618-.395 2.718-1.382.202-2.073.302-4.146.202-6.219 1.61-1.678 2.919-3.652 4.127-5.627.805 1.481 1.51 2.962 2.013 4.541.906 2.764 2.315 5.232 3.221 7.996.504 1.777 4.53.691 4.027-1.086-.906-2.665-2.315-5.232-3.322-7.897ZM103.852 18.732c-.201-.79-1.409-.889-2.315-.79v-.987c-.1-2.665-.201-5.33-.402-7.996-.202-2.468-1.611-3.356-4.027-3.258-2.416.1-5.335.494-7.65 1.382-2.618.988-4.128 2.962-4.631 5.627-.604 2.961.201 6.219.403 9.18.2 3.455.1 7.009.1 10.464 0 .592 4.027 0 4.027-1.086v-8.292c0-.79-.1-1.58-.1-2.468 1.408-.592 3.724 0 5.133.1 1.107.098 2.215-.198 3.322-.297 0 2.27.1 4.64.201 6.91 0 1.184.504 3.554-.402 4.54-.403.494 1.51.297 1.61.297.806-.099 1.812-.395 2.316-1.086 1.006-1.086.503-3.751.402-5.133-.101-1.876-.101-3.85-.101-5.726 1.007.198 2.316-.592 2.114-1.381Zm-14.898-.198c-.1-1.283-.201-2.468-.302-3.751-.201-2.37.1-5.528 2.315-7.009.604-.394 1.712-.296 2.416-.394 1.007-.198 2.014-.395 2.92.197 1.208.79.906 3.652.906 4.837 0 1.974.2 3.948.302 6.021-.604.1-1.108.1-1.712.1-2.315-.1-4.63-.396-6.845 0ZM25.133 6.984c.503-.098 1.107-.197 1.51-.493.1-.099.201-.099.302-.198.503-.296 1.006-.79.704-1.382-.503-1.085-.402-2.27-.402-3.356 0-.987-1.007-1.283-1.812-1.184-.705.098-2.215.592-2.215 1.48 0 .987-.1 1.975.1 2.962 0 .098-.1.197-.1.394-.1.198 0 .395.1.593v.395c.102.197.202.394.404.493.402.296.905.296 1.409.296Z" fill="#fff"/></svg>